Music_VSMenu1:
	channel_count 2
	channel 1, Music_VSMenu_Ch1
	channel 2, Music_VSMenu_Ch2

Music_VSMenu2:
	channel_count 2
	channel 1, Music_VSMenu_Ch3
	channel 2, Music_VSMenu_Ch4

Music_VSMenu_Ch1:
	tempo 144
	volume 7
	duty_cycle 2
	note_type 4, 11, 1
	rest 1
	toggle_perfect_pitch
	note_type 8, 11, 1
.mainloop:
	octave 4
	note C_, 3
	note C_, 1
	note C_, 1
	note C_, 1
	note E_, 2
	note C_, 2
	note E_, 2
	note G_, 2
	note E_, 2
	note G_, 2
	octave 5
	note C_, 4
	note C_, 2
	octave 4
	note E_, 3
	note E_, 1
	note E_, 1
	note E_, 1
	note G_, 2
	note E_, 2
	note G_, 2
	octave 5
	note C_, 2
	octave 4
	note G_, 2
	octave 5
	note C_, 2
	note E_, 4
	note E_, 2
	note C_, 3
	note C_, 1
	note C_, 1
	note C_, 1
	octave 4
	note G_, 2
	octave 5
	note C_, 2
	octave 4
	note G_, 2
	octave 5
	note C_, 2
	octave 4
	note G_, 2
	note E_, 2
	note C_, 4
	note C_, 2
	note E_, 4
	note E_, 2
	note G_, 4
	note G_, 2
	octave 5
	note C_, 4
	note C_, 2
	octave 4
	note G_, 4
	note G_, 2
	note G_, 4
	note G_, 2
	octave 5
	note C_, 4
	note C_, 2
	note E_, 4
	note E_, 2
	note C_, 4
	note C_, 2
	note C_, 2
	note C_, 2
	note C_, 2
	note E_, 6
	note C_, 2
	note C_, 2
	note C_, 2
	note E_, 6
	octave 4
	note G_, 2
	note G_, 2
	note G_, 2
	octave 5
	note C_, 6
	octave 4
	note G_, 2
	note G_, 2
	note G_, 2
	octave 5
	note C_, 6
	sound_loop 0, .mainloop

Music_VSMenu_Ch2:
	duty_cycle 2
	note_type 8, 12, 1
.mainloop:
	octave 4
	note C_, 3
	note C_, 1
	note C_, 1
	note C_, 1
	note E_, 2
	note C_, 2
	note E_, 2
	note G_, 2
	note E_, 2
	note G_, 2
	octave 5
	note C_, 4
	note C_, 2
	octave 4
	note E_, 3
	note E_, 1
	note E_, 1
	note E_, 1
	note G_, 2
	note E_, 2
	note G_, 2
	octave 5
	note C_, 2
	octave 4
	note G_, 2
	octave 5
	note C_, 2
	note E_, 4
	note E_, 2
	note C_, 3
	note C_, 1
	note C_, 1
	note C_, 1
	octave 4
	note G_, 2
	octave 5
	note C_, 2
	octave 4
	note G_, 2
	octave 5
	note C_, 2
	octave 4
	note G_, 2
	note E_, 2
	note C_, 4
	note C_, 2
	note E_, 4
	note E_, 2
	note G_, 4
	note G_, 2
	octave 5
	note C_, 4
	note C_, 2
	octave 4
	note G_, 4
	note G_, 2
	note G_, 4
	note G_, 2
	octave 5
	note C_, 4
	note C_, 2
	note E_, 4
	note E_, 2
	note C_, 4
	note C_, 2
	note C_, 2
	note C_, 2
	note C_, 2
	note E_, 6
	note C_, 2
	note C_, 2
	note C_, 2
	note E_, 6
	octave 4
	note G_, 2
	note G_, 2
	note G_, 2
	octave 5
	note C_, 6
	octave 4
	note G_, 2
	note G_, 2
	note G_, 2
	octave 5
	note C_, 6
	sound_loop 0, .mainloop

Music_VSMenu_Ch3:
	tempo 144
	volume 7
	duty_cycle 2
	note_type 4, 11, 1
	rest 1
	toggle_perfect_pitch
	note_type 12, 12, 1
	rest 16
.mainloop:
	note_type 8, 11, 1
	octave 4
	note C_, 3
	note C_, 1
	note C_, 1
	note C_, 1
	note E_, 2
	note C_, 2
	note E_, 2
	note G_, 2
	note E_, 2
	note G_, 2
	octave 5
	note C_, 4
	note C_, 2
	octave 4
	note E_, 3
	note E_, 1
	note E_, 1
	note E_, 1
	note G_, 2
	note E_, 2
	note G_, 2
	octave 5
	note C_, 2
	octave 4
	note G_, 2
	octave 5
	note C_, 2
	note E_, 4
	note E_, 2
	note C_, 3
	note C_, 1
	note C_, 1
	note C_, 1
	octave 4
	note G_, 2
	octave 5
	note C_, 2
	octave 4
	note G_, 2
	octave 5
	note C_, 2
	octave 4
	note G_, 2
	note E_, 2
	note C_, 4
	note C_, 2
	note E_, 4
	note E_, 2
	note G_, 4
	note G_, 2
	octave 5
	note C_, 4
	note C_, 2
	octave 4
	note G_, 4
	note G_, 2
	note G_, 4
	note G_, 2
	octave 5
	note C_, 4
	note C_, 2
	note E_, 4
	note E_, 2
	note C_, 4
	note C_, 2
	note C_, 2
	note C_, 2
	note C_, 2
	note E_, 6
	note C_, 2
	note C_, 2
	note C_, 2
	note E_, 6
	octave 4
	note G_, 2
	note G_, 2
	note G_, 2
	octave 5
	note C_, 6
	octave 4
	note G_, 2
	note G_, 2
	note G_, 2
	octave 5
	note C_, 6
	sound_loop 0, .mainloop

Music_VSMenu_Ch4:
	duty_cycle 2
	note_type 12, 12, 1
	rest 16
.mainloop:
	note_type 8, 12, 1
	octave 4
	note C_, 3
	note C_, 1
	note C_, 1
	note C_, 1
	note E_, 2
	note C_, 2
	note E_, 2
	note G_, 2
	note E_, 2
	note G_, 2
	octave 5
	note C_, 4
	note C_, 2
	octave 4
	note E_, 3
	note E_, 1
	note E_, 1
	note E_, 1
	note G_, 2
	note E_, 2
	note G_, 2
	octave 5
	note C_, 2
	octave 4
	note G_, 2
	octave 5
	note C_, 2
	note E_, 4
	note E_, 2
	note C_, 3
	note C_, 1
	note C_, 1
	note C_, 1
	octave 4
	note G_, 2
	octave 5
	note C_, 2
	octave 4
	note G_, 2
	octave 5
	note C_, 2
	octave 4
	note G_, 2
	note E_, 2
	note C_, 4
	note C_, 2
	note E_, 4
	note E_, 2
	note G_, 4
	note G_, 2
	octave 5
	note C_, 4
	note C_, 2
	octave 4
	note G_, 4
	note G_, 2
	note G_, 4
	note G_, 2
	octave 5
	note C_, 4
	note C_, 2
	note E_, 4
	note E_, 2
	note C_, 4
	note C_, 2
	note C_, 2
	note C_, 2
	note C_, 2
	note E_, 6
	note C_, 2
	note C_, 2
	note C_, 2
	note E_, 6
	octave 4
	note G_, 2
	note G_, 2
	note G_, 2
	octave 5
	note C_, 6
	octave 4
	note G_, 2
	note G_, 2
	note G_, 2
	octave 5
	note C_, 6
	sound_loop 0, .mainloop
